<svg xmlns="http://www.w3.org/2000/svg" xmlns:xlink="http://www.w3.org/1999/xlink" version="1.1" x="0px" y="0px" viewBox="0 0 100 125" enable-background="new 0 0 100 100" xml:space="preserve"><path d="M50,8C26.804,8,8,26.804,8,50c0,23.195,18.804,42,42,42c23.195,0,42-18.805,42-42C92,26.804,73.195,8,50,8z M72.288,64.316  c-4.884,7.535-13.153,12.035-22.122,12.035c-14.058,0-25.578-11.063-26.313-24.94l-2.882,3.397  c-0.495,0.584-1.199,0.883-1.908,0.883c-0.571,0-1.146-0.193-1.616-0.592c-1.053-0.895-1.183-2.472-0.29-3.524l7.324-8.638  c0.45-0.53,1.101-0.85,1.795-0.881c0.709-0.03,1.371,0.229,1.866,0.716l7.97,7.849c0.984,0.969,0.996,2.552,0.027,3.535  c-0.97,0.984-2.553,0.996-3.535,0.027l-3.766-3.709c0.256,11.553,9.715,20.875,21.328,20.875c7.268,0,13.968-3.646,17.927-9.752  c0.751-1.162,2.302-1.488,3.457-0.738C72.709,61.611,73.039,63.159,72.288,64.316z M76.629,54.177  c-0.393,0.575-1.005,0.962-1.691,1.064c-0.125,0.02-0.25,0.028-0.375,0.028c-0.562,0-1.11-0.189-1.558-0.545l-8.751-6.972  c-1.08-0.86-1.258-2.434-0.396-3.513c0.858-1.079,2.435-1.258,3.514-0.398l3.902,3.111c-1.484-10.332-10.371-18.305-21.105-18.305  c-6.537,0-12.628,2.936-16.708,8.055c-0.86,1.08-2.432,1.258-3.514,0.396c-1.079-0.86-1.257-2.434-0.396-3.513  c5.035-6.315,12.55-9.938,20.618-9.938c13.145,0,24.066,9.673,26.034,22.274L78.872,42c0.774-1.141,2.332-1.436,3.476-0.659  c1.141,0.777,1.437,2.332,0.657,3.474L76.629,54.177z"/></svg>
