<svg xmlns:dc="http://purl.org/dc/elements/1.1/" xmlns:cc="http://creativecommons.org/ns#" xmlns:rdf="http://www.w3.org/1999/02/22-rdf-syntax-ns#" xmlns:svg="http://www.w3.org/2000/svg" xmlns="http://www.w3.org/2000/svg" xmlns:sodipodi="http://sodipodi.sourceforge.net/DTD/sodipodi-0.dtd" xmlns:inkscape="http://www.inkscape.org/namespaces/inkscape" version="1.1" x="0px" y="0px" viewBox="0 0 100 125"><g transform="translate(0,-952.36218)"><path style="text-indent:0;text-transform:none;direction:ltr;block-progression:tb;baseline-shift:baseline;color:#000000;enable-background:accumulate;" d="M 15.8125,966.38083 A 1.0001,0.99984107 0 0 0 15,967.38057 l 0,59.98443 a 1.0001,0.99984107 0 0 0 1,0.9998 l 60,0 a 1.0001,0.99984107 0 1 0 0,-1.9995 l -59,0 0,-17.9953 59,0 a 1.0001,0.99984107 0 1 0 0,-1.9995 l -59,0 0,-17.99537 66,0 0,15.99587 a 1.0001,0.99984107 0 1 0 2,0 l 0,-36.99043 a 1.0001,0.99984107 0 0 0 -1,-0.99974 l -68,0 a 1.0001,0.99984107 0 0 0 -0.1875,0 z m 1.1875,1.99948 66,0 0,17.99534 -66,0 0,-17.99534 z m 11,3.99896 c -2.749579,0 -5,2.24984 -5,4.99871 0,2.74886 2.250421,4.9987 5,4.9987 2.74958,0 5,-2.24984 5,-4.9987 0,-2.74887 -2.25042,-4.99871 -5,-4.99871 z m 0,1.99948 c 1.668699,0 3,1.33096 3,2.99923 0,1.66826 -1.331301,2.99922 -3,2.99922 -1.668698,0 -3,-1.33096 -3,-2.99922 0,-1.66827 1.331302,-2.99923 3,-2.99923 z m 12.8125,1.99949 A 1.0043849,1.0041249 0 1 0 41,978.37772 l 35,0 a 1.0001,0.99984107 0 1 0 0,-1.99948 l -35,0 a 1.0001,0.99984107 0 0 0 -0.1875,0 z M 28,992.37409 c -2.749579,0 -5,2.24984 -5,4.99871 0,2.7489 2.250421,4.9987 5,4.9987 2.74958,0 5,-2.2498 5,-4.9987 0,-2.74887 -2.25042,-4.99871 -5,-4.99871 z m 0,1.99949 c 1.668699,0 3,1.33095 3,2.99922 0,1.66826 -1.331301,2.9992 -3,2.9992 -1.668698,0 -3,-1.33094 -3,-2.9992 0,-1.66827 1.331302,-2.99922 3,-2.99922 z m 12.8125,1.99948 A 1.0043849,1.0041249 0 1 0 41,998.37254 l 35,0 a 1.0001,0.99984107 0 1 0 0,-1.99948 l -35,0 a 1.0001,0.99984107 0 0 0 -0.1875,0 z M 81,1011.3692 c -0.552285,0 -1,0.4476 -1,0.9997 0,0.5522 0.447715,0.9998 1,0.9998 0.552285,0 1,-0.4476 1,-0.9998 0,-0.5521 -0.447715,-0.9997 -1,-0.9997 z m -53,0.9997 c -2.749579,0 -5,2.2499 -5,4.9987 0,2.7489 2.250421,4.9987 5,4.9987 2.74958,0 5,-2.2498 5,-4.9987 0,-2.7488 -2.25042,-4.9987 -5,-4.9987 z m 0,1.9995 c 1.668699,0 3,1.331 3,2.9992 0,1.6683 -1.331301,2.9992 -3,2.9992 -1.668698,0 -3,-1.3309 -3,-2.9992 0,-1.6682 1.331302,-2.9992 3,-2.9992 z m 52.875,1.9682 a 1.0001,0.99984107 0 0 0 -0.875,1.031 l 0,19.9948 a 1.0001,0.99984107 0 1 0 2,0 l 0,-19.9948 a 1.0001,0.99984107 0 0 0 -1.125,-1.031 z m -40.0625,0.031 A 1.0043849,1.0041249 0 1 0 41,1018.3674 l 35,0 a 1.0001,0.99984107 0 1 0 0,-1.9995 l -35,0 a 1.0001,0.99984107 0 0 0 -0.1875,0 z" fill="#000000" fill-opacity="1" stroke="none" marker="none" visibility="visible" display="inline" overflow="visible"/></g></svg>
