<svg xmlns:dc="http://purl.org/dc/elements/1.1/" xmlns:cc="http://creativecommons.org/ns#" xmlns:rdf="http://www.w3.org/1999/02/22-rdf-syntax-ns#" xmlns:svg="http://www.w3.org/2000/svg" xmlns="http://www.w3.org/2000/svg" xmlns:sodipodi="http://sodipodi.sourceforge.net/DTD/sodipodi-0.dtd" xmlns:inkscape="http://www.inkscape.org/namespaces/inkscape" version="1.1" x="0px" y="0px" viewBox="0 0 100 125"><g transform="translate(0,-952.36218)"><path style="font-size:medium;font-style:normal;font-variant:normal;font-weight:normal;font-stretch:normal;text-indent:0;text-align:start;text-decoration:none;line-height:normal;letter-spacing:normal;word-spacing:normal;text-transform:none;direction:ltr;block-progression:tb;writing-mode:lr-tb;text-anchor:start;baseline-shift:baseline;opacity:1;color:#000000;fill:#000000;fill-opacity:1;stroke:none;stroke-width:4;marker:none;visibility:visible;display:inline;overflow:visible;enable-background:accumulate;font-family:Sans;-inkscape-font-specification:Sans" d="M 50 6 C 33.968594 6 21 18.96859 21 35 L 21 36 L 13 36 A 2.0002 2.0002 0 0 0 12.8125 36 A 2.0002 2.0002 0 0 0 11 38 L 11 81 C 11 88.1674 16.832593 94 24 94 L 76 94 C 83.167407 94 89 88.1674 89 81 L 89 38 A 2.0002 2.0002 0 0 0 87 36 L 79 36 L 79 35 C 79 18.96859 66.031406 6 50 6 z M 50 10 C 63.884594 10 75 21.11541 75 35 L 75 36 L 25 36 L 25 35 C 25 21.11541 36.115406 10 50 10 z M 15 40 L 85 40 L 85 81 C 85 86.0206 81.020597 90 76 90 L 24 90 C 18.979403 90 15 86.0206 15 81 L 15 40 z M 50 52 C 45.60536 52 42 55.6054 42 60 C 42 63.70275 44.568223 66.823863 48 67.71875 L 48 76 A 2.0002 2.0002 0 1 0 52 76 L 52 67.71875 C 55.431777 66.823863 58 63.70275 58 60 C 58 55.6054 54.39464 52 50 52 z M 50 56 C 52.23284 56 54 57.7671 54 60 C 54 62.2328 52.23284 64 50 64 C 47.76716 64 46 62.2328 46 60 C 46 57.7671 47.76716 56 50 56 z " transform="translate(0,952.36218)"/></g></svg>
